<?xml version="1.0" standalone="no"?>
<!DOCTYPE svg PUBLIC "-//W3C//DTD SVG 20010904//EN"
 "http://www.w3.org/TR/2001/REC-SVG-20010904/DTD/svg10.dtd">
<svg version="1.0" xmlns="http://www.w3.org/2000/svg"
 width="512.000000pt" height="368.000000pt" viewBox="0 0 512.000000 368.000000"
 preserveAspectRatio="xMidYMid meet">
<metadata>
Created by potrace 1.13, written by Peter Selinger 2001-2015
</metadata>
<g transform="translate(0.000000,368.000000) scale(0.100000,-0.100000)"
fill="#000000" stroke="none">
<path d="M1897 3670 c-74 -13 -184 -48 -265 -86 -158 -72 -190 -100 -826 -733
-638 -635 -720 -722 -757 -799 -74 -156 -61 -341 33 -481 36 -54 1232 -1257
1328 -1336 130 -107 287 -181 455 -216 85 -18 161 -19 1465 -19 1476 0 1418
-2 1526 51 108 52 217 188 250 313 20 76 20 2876 0 2952 -44 167 -183 306
-349 350 -43 11 -290 14 -1432 13 -759 -1 -1402 -5 -1428 -9z m580 -871 c15
-5 184 -166 376 -357 l347 -347 348 347 c191 191 360 352 375 357 42 16 124
13 163 -5 47 -22 76 -67 82 -125 10 -108 23 -92 -361 -476 l-351 -353 351
-352 c384 -385 371 -369 361 -477 -6 -58 -35 -103 -82 -125 -39 -18 -121 -21
-163 -5 -15 5 -184 166 -375 357 l-348 346 -352 -351 c-385 -384 -369 -371
-477 -361 -58 6 -103 35 -125 82 -18 39 -21 121 -5 163 5 15 166 184 357 375
l346 348 -351 352 c-384 385 -371 369 -361 477 6 57 35 102 80 124 38 19 123
22 165 6z"/>
</g>
</svg>
