<?xml version="1.0" standalone="no"?>
<!DOCTYPE svg PUBLIC "-//W3C//DTD SVG 20010904//EN"
 "http://www.w3.org/TR/2001/REC-SVG-20010904/DTD/svg10.dtd">
<svg version="1.0" xmlns="http://www.w3.org/2000/svg"
 width="512.000000pt" height="512.000000pt" viewBox="0 0 512.000000 512.000000"
 preserveAspectRatio="xMidYMid meet">
<metadata>
Created by potrace 1.13, written by Peter Selinger 2001-2015
</metadata>
<g transform="translate(0.000000,512.000000) scale(0.100000,-0.100000)"
fill="#000000" stroke="none">
<path d="M1925 4393 c-59 -8 -181 -43 -252 -72 -180 -74 -166 -62 -900 -794
-543 -542 -688 -693 -712 -737 -59 -111 -75 -231 -46 -345 34 -130 31 -127
758 -851 586 -584 692 -687 755 -723 87 -51 189 -94 292 -124 l75 -22 1395 -3
c984 -2 1410 1 1447 8 175 37 322 179 368 357 23 86 23 2860 0 2946 -45 173
-178 307 -350 352 -52 13 -228 15 -1430 14 -753 -1 -1383 -4 -1400 -6z m2801
-339 c15 -11 37 -33 48 -48 21 -27 21 -29 21 -1446 0 -1417 0 -1419 -21 -1446
-11 -15 -33 -37 -48 -48 -27 -21 -32 -21 -1384 -24 -1329 -2 -1358 -2 -1436
18 -44 11 -118 38 -165 61 l-86 41 -662 662 c-719 718 -685 679 -669 774 6 33
83 112 669 698 661 661 662 662 747 703 178 86 58 80 1597 78 1358 -2 1362 -2
1389 -23z"/>
<path d="M2335 3506 c-41 -18 -83 -69 -91 -111 -16 -88 -21 -82 369 -472 l362
-363 -362 -362 c-391 -392 -385 -385 -368 -475 9 -49 69 -109 118 -118 90 -17
83 -23 475 368 l362 362 363 -362 c391 -391 384 -385 474 -368 49 9 109 69
118 118 17 90 23 83 -368 475 l-362 362 362 363 c391 391 385 384 368 474 -9
49 -69 109 -118 118 -90 17 -83 23 -475 -368 l-362 -362 -358 357 c-196 196
-370 362 -385 368 -38 14 -85 12 -122 -4z"/>
</g>
</svg>
